<?xml version="1.0" standalone="no"?>
<!DOCTYPE svg PUBLIC "-//W3C//DTD SVG 20010904//EN"
 "http://www.w3.org/TR/2001/REC-SVG-20010904/DTD/svg10.dtd">
<svg version="1.0" xmlns="http://www.w3.org/2000/svg"
 width="128.000000pt" height="128.000000pt" viewBox="0 0 128.000000 128.000000"
 preserveAspectRatio="xMidYMid meet">
<metadata>
Created by potrace 1.11, written by Peter Selinger 2001-2013
</metadata>
<g transform="translate(0.000000,128.000000) scale(0.100000,-0.100000)"
fill="#000000" stroke="none">
<path d="M510 1205 c-254 -57 -444 -288 -454 -552 -7 -169 50 -312 173 -433
79 -78 127 -109 221 -142 72 -25 110 -31 195 -31 256 0 484 176 561 433 27 89
23 237 -10 333 -61 181 -190 312 -367 374 -92 32 -225 39 -319 18z m101 -187
c1 -13 0 -40 -1 -60 -1 -36 0 -38 29 -38 34 0 35 3 32 78 l-2 42 41 0 40 0 0
-65 c0 -60 2 -65 21 -65 41 0 98 -23 124 -50 47 -49 43 -149 -7 -184 -19 -14
-18 -15 17 -31 44 -22 68 -65 67 -123 -2 -95 -62 -154 -169 -168 -29 -3 -54
-11 -54 -18 -1 -6 -3 -27 -4 -46 -1 -19 -3 -42 -4 -51 -1 -11 -12 -16 -36 -17
l-35 -1 0 64 0 65 -30 0 -30 0 0 -64 0 -63 -37 2 -38 1 -1 50 c-1 27 -2 55 -3
62 -1 8 -23 12 -75 12 l-75 0 5 28 c10 57 14 62 49 62 19 0 37 5 40 10 4 6 7
90 7 187 1 162 -1 177 -18 190 -10 8 -31 13 -46 10 -30 -4 -36 4 -34 48 2 30
3 30 63 31 81 2 95 8 93 41 -5 76 -2 83 35 83 29 0 35 -4 36 -22z"/>
<path d="M619 828 c-1 -2 -3 -36 -4 -77 l-3 -74 62 5 c70 6 104 23 112 55 15
56 -31 93 -116 93 -27 0 -51 -1 -51 -2z"/>
<path d="M616 601 c-2 -3 -4 -41 -4 -83 l-2 -78 63 0 c133 0 202 89 110 142
-28 17 -160 32 -167 19z"/>
</g>
</svg>
